<svg fill="#fff" xmlns="http://www.w3.org/2000/svg" data-name="Layer 1" viewBox="0 0 100 100" x="0px" y="0px"><title>Artboard 75</title><path d="M68.27,68.31l10-10V92.72a5,5,0,0,1-5,5H7.34a5,5,0,0,1-5-5V26.79a5,5,0,0,1,5-5H41.43l-10,10H12.34V87.72H68.27ZM97.66,23a4.16,4.16,0,0,1-1.2,2.95L55.4,67a4.16,4.16,0,0,1-1.84,1.08L30.7,74.48a4.17,4.17,0,0,1-1.09.15h0a4.16,4.16,0,0,1-4-5.24L31.7,46.48a4.17,4.17,0,0,1,1.06-1.85L73.81,3.51a4.16,4.16,0,0,1,2.94-1.23h.11A20.83,20.83,0,0,1,97.66,23ZM50.23,60.42A12.49,12.49,0,0,0,39.44,49.74l-2.39,8.93a8.36,8.36,0,0,1,4.27,4.22Z"/></svg>
